<?xml version="1.0" encoding="UTF-8" standalone="no"?>
<svg
   xmlns:dc="http://purl.org/dc/elements/1.1/"
   xmlns:cc="http://creativecommons.org/ns#"
   xmlns:rdf="http://www.w3.org/1999/02/22-rdf-syntax-ns#"
   xmlns:svg="http://www.w3.org/2000/svg"
   xmlns="http://www.w3.org/2000/svg"
   xmlns:sodipodi="http://sodipodi.sourceforge.net/DTD/sodipodi-0.dtd"
   xmlns:inkscape="http://www.inkscape.org/namespaces/inkscape"
   version="1.1"
   width="2589.7385"
   viewbox="0 0 2427.88 2637.59"
   height="2813.4294"
   id="svg2"
   inkscape:version="0.92.1 r15371"
   sodipodi:docname="dbtemplate.svg">
  <metadata
     id="metadata436">
    <rdf:RDF>
      <cc:Work
         rdf:about="">
        <dc:title />
        <dc:format>image/svg+xml</dc:format>
        <dc:type
           rdf:resource="http://purl.org/dc/dcmitype/StillImage" />
      </cc:Work>
    </rdf:RDF>
  </metadata>
  <defs
     id="defs434">
    <defs
       id="defs402" />
    <sodipodi:namedview
       fit-margin-bottom="0"
       fit-margin-right="0"
       fit-margin-left="0"
       fit-margin-top="0"
       inkscape:object-nodes="true"
       inkscape:bbox-nodes="true"
       inkscape:snap-bbox="true"
       inkscape:guide-bbox="true"
       showguides="true"
       inkscape:current-layer="svg2"
       inkscape:window-maximized="0"
       inkscape:window-y="27"
       inkscape:window-x="0"
       inkscape:cy="923.66936"
       inkscape:cx="1943.7816"
       inkscape:zoom="0.1767767"
       showgrid="false"
       id="namedview400"
       inkscape:window-height="983"
       inkscape:window-width="1416"
       inkscape:pageshadow="2"
       inkscape:pageopacity="0"
       guidetolerance="10"
       gridtolerance="10"
       objecttolerance="10"
       borderopacity="1"
       bordercolor="#666666"
       pagecolor="#ffffff">
      <sodipodi:guide
         id="guide4384"
         position="767.68981,1006.2493"
         orientation="0.62373169,0.78163852" />
      <sodipodi:guide
         id="guide4494"
         position="1666.7185,2371.7402"
         orientation="-0.39346278,0.91934054" />
      <sodipodi:guide
         id="guide4496"
         position="73.21875,2500.7526"
         orientation="1,0" />
      <sodipodi:guide
         id="guide4498"
         position="138.23402,2497.1306"
         orientation="0,1" />
      <sodipodi:guide
         id="guide4792"
         position="1784.75,2408.25"
         orientation="1,0" />
      <sodipodi:guide
         id="guide4794"
         position="896,1594"
         orientation="0,1" />
    </sodipodi:namedview>
  </defs>
  <sodipodi:namedview
     pagecolor="#ffffff"
     bordercolor="#666666"
     borderopacity="1"
     objecttolerance="10"
     gridtolerance="10"
     guidetolerance="10"
     inkscape:pageopacity="0"
     inkscape:pageshadow="2"
     inkscape:window-width="1680"
     inkscape:window-height="1005"
     id="namedview432"
     showgrid="false"
     inkscape:snap-bbox="true"
     inkscape:object-nodes="true"
     inkscape:zoom="0.22159195"
     inkscape:cx="2362.6852"
     inkscape:cy="1125.5915"
     inkscape:window-x="0"
     inkscape:window-y="26"
     inkscape:window-maximized="1"
     inkscape:current-layer="svg2"
     inkscape:snap-page="true"
     inkscape:snap-global="false" />
  <path
     sodipodi:nodetypes="ssszsccczzzcccccccc"
     inkscape:connector-curvature="0"
     d="m -513.69886,692.62538 c 0,3.90625 -3.06957,7.07289 -6.85607,7.07289 -3.7865,0 -6.85607,-3.16664 -6.85607,-7.07289 0,-3.79758 3.12289,-6.99789 6.85607,-7.0729 3.73317,-0.075 6.85607,3.16665 6.85607,7.0729 z m -63.91625,54.70441 1.99047,-8.84111 c 0,0 21.12313,-19.89069 31.84754,-30.05981 -5.13133,-6.86076 -4.34953,-20.68748 3.6492,-27.73899 7.99875,-7.05152 24.10975,-5.90664 31.07348,2.09976 6.96374,8.00639 6.81469,20.36625 -1.10581,28.95466 -7.9205,8.58839 -21.19741,5.77376 -24.70557,4.27769 l -7.46238,7.12233 -0.34309,8.71353 -9.25453,0.44676 -0.919,9.72051 -8.92558,-0.32455 -5.19063,4.95412 z"
     style="color:#000000;display:inline;overflow:visible;visibility:visible;fill:none;stroke:#1a1a1a;stroke-width:4.26666689;stroke-linecap:butt;stroke-linejoin:round;stroke-miterlimit:4;stroke-dashoffset:0;stroke-opacity:1;marker:none;enable-background:accumulate"
     id="path3899" />
  <path
     sodipodi:nodetypes="cc"
     inkscape:connector-curvature="0"
     id="path3598-5-0"
     d="M 783.90482,365.95726 C 737.41639,326.76999 692.50297,338.09456 630.17884,338.47784"
     style="fill:none;stroke:#003300;stroke-width:4.26666689;stroke-linecap:butt;stroke-linejoin:round;stroke-miterlimit:4;stroke-dasharray:none;stroke-opacity:1" />
  <path
     sodipodi:nodetypes="ccccc"
     inkscape:connector-curvature="0"
     id="path4283"
     d="m 926.56441,1361.078 c -28.57594,-23.7705 -32.90878,-35.3327 -0.64226,-26.9475 -42.92113,-28.6872 -42.71004,-25.5955 0.46953,-57.3618 -37.87216,8.1496 -78.08752,40.7821 -141.78107,-10.4544 58.22731,78.7038 141.9538,94.7637 141.9538,94.7637 z"
     style="fill:#006400;fill-opacity:1;stroke:#003300;stroke-width:4.26666689;stroke-linecap:butt;stroke-linejoin:round;stroke-miterlimit:4;stroke-dasharray:none;stroke-opacity:1" />
  <path
     sodipodi:nodetypes="cc"
     inkscape:connector-curvature="0"
     id="path3598"
     d="M 785.54524,1266.9752 C 705.55098,1203.0574 817.43385,339.90492 631.08766,337.76573"
     style="fill:none;stroke:#003300;stroke-width:4.26666689;stroke-linecap:butt;stroke-linejoin:round;stroke-miterlimit:4;stroke-dasharray:none;stroke-opacity:1" />
  <path
     id="path4382"
     style="color:#000000;display:inline;overflow:visible;visibility:visible;fill:#00a000;fill-opacity:1;fill-rule:evenodd;stroke:#003300;stroke-width:4.26666689;stroke-linecap:butt;stroke-linejoin:round;stroke-miterlimit:4;stroke-dashoffset:0;stroke-opacity:1;marker:none;enable-background:accumulate"
     d="m 630.12758,342.89581 c -2.73516,2.78884 -7.14395,2.90032 -9.8473,0.24899 -2.70335,-2.65132 -2.67755,-7.06145 0.0576,-9.85029 2.65908,-2.71126 7.12951,-2.80943 9.8473,-0.24899 2.71778,2.56044 2.67755,7.06145 -0.0576,9.85029 z m -83.9368,-5.69861 7.61167,-4.91831 c 0,0 29.00825,0.58969 43.78533,0.83881 1.14045,-8.49118 11.38013,-17.81526 22.02827,-17.24888 10.64815,0.56638 21.34883,12.66475 20.71442,23.25689 -0.6344,10.59215 -9.39524,19.31201 -21.06365,19.89767 -11.66841,0.58567 -19.17655,-10.72037 -20.63363,-14.2449 l -10.31479,-0.14026 -6.3462,5.98071 -6.92002,-6.16108 -7.46245,6.29639 -6.1451,-6.48144 -7.17472,-0.0975 z"
     inkscape:connector-curvature="0"
     sodipodi:nodetypes="ssszsccczzzcccccccc" />
  <path
     sodipodi:nodetypes="ccccc"
     inkscape:connector-curvature="0"
     id="path4283-8"
     d="m 921.92551,1958.0976 c -28.57594,-23.7706 -32.90878,-35.3327 -0.64226,-26.9475 -42.92113,-28.6873 -42.71004,-25.5956 0.46953,-57.3618 -37.87216,8.1496 -78.08752,40.782 -141.78107,-10.4544 58.22731,78.7037 141.9538,94.7637 141.9538,94.7637 z"
     style="fill:#006400;fill-opacity:1;stroke:#003300;stroke-width:4.26666689;stroke-linecap:butt;stroke-linejoin:round;stroke-miterlimit:4;stroke-dasharray:none;stroke-opacity:1" />
  <path
     sodipodi:nodetypes="cc"
     inkscape:connector-curvature="0"
     id="path3598-5"
     d="M 780.41412,1863.5827 C 700.41986,1799.6649 740.88375,1747.3691 663.93565,1745.2299"
     style="fill:none;stroke:#003300;stroke-width:4.26666689;stroke-linecap:butt;stroke-linejoin:round;stroke-miterlimit:4;stroke-dasharray:none;stroke-opacity:1" />
  <path
     id="path4382-6"
     style="color:#000000;display:inline;overflow:visible;visibility:visible;fill:#00a000;fill-opacity:1;fill-rule:evenodd;stroke:#003300;stroke-width:4.26666689;stroke-linecap:butt;stroke-linejoin:round;stroke-miterlimit:4;stroke-dashoffset:0;stroke-opacity:1;marker:none;enable-background:accumulate"
     d="m 662.79684,1750.9935 c -2.73517,2.7889 -7.14396,2.9003 -9.84731,0.249 -2.70335,-2.6513 -2.67755,-7.0614 0.0576,-9.8503 2.65908,-2.7112 7.12952,-2.8094 9.84731,-0.249 2.71778,2.5605 2.67754,7.0615 -0.0576,9.8503 z m -83.9368,-5.6986 7.61167,-4.9183 c 0,0 29.00824,0.5897 43.78532,0.8388 1.14046,-8.4912 11.38014,-17.8153 22.02828,-17.2489 10.64815,0.5664 21.34883,12.6648 20.71442,23.2569 -0.6344,10.5922 -9.39524,19.312 -21.06366,19.8977 -11.66841,0.5857 -19.17654,-10.7204 -20.63362,-14.2449 l -10.3148,-0.1403 -6.34619,5.9807 -6.92003,-6.161 -7.46245,6.2963 -6.1451,-6.4814 -7.17472,-0.097 z"
     inkscape:connector-curvature="0"
     sodipodi:nodetypes="ssszsccczzzcccccccc" />
  <path
     sodipodi:nodetypes="ccccc"
     inkscape:connector-curvature="0"
     id="path4283-8-3"
     d="m 926.76601,459.08435 c -28.57594,-23.77056 -32.90878,-35.33269 -0.64226,-26.94752 -42.92113,-28.68725 -42.71004,-25.59552 0.46953,-57.36181 -37.87216,8.14965 -79.76917,42.04332 -143.46273,-9.19316 58.22732,78.70378 143.63546,93.50249 143.63546,93.50249 z"
     style="fill:#006400;fill-opacity:1;stroke:#003300;stroke-width:4.26666689;stroke-linecap:butt;stroke-linejoin:round;stroke-miterlimit:4;stroke-dasharray:none;stroke-opacity:1" />
  <path
     sodipodi:nodetypes="ccccc"
     inkscape:connector-curvature="0"
     id="path4283-8-9"
     d="m 1484.7373,385.59002 c 28.5759,-23.77056 32.9088,-35.3327 0.6422,-26.94752 42.9212,-28.68726 42.7101,-25.59552 -0.4695,-57.36182 37.8722,8.14966 89.5486,34.86993 156.4945,6.21814 -73.7763,38.77921 -156.6672,78.0912 -156.6672,78.0912 z"
     style="fill:#006400;fill-opacity:1;stroke:#003300;stroke-width:4.26666689;stroke-linecap:butt;stroke-linejoin:round;stroke-miterlimit:4;stroke-dasharray:none;stroke-opacity:1" />
  <path
     sodipodi:nodetypes="cc"
     inkscape:connector-curvature="0"
     id="path3598-5-03"
     d="m 1640.719,307.7745 c 45.9659,-19.13065 61.3449,-56.3941 113.9995,-54.74958"
     style="fill:none;stroke:#003300;stroke-width:4.26666689;stroke-linecap:butt;stroke-linejoin:round;stroke-miterlimit:4;stroke-dasharray:none;stroke-opacity:1" />
  <path
     id="path4382-6-8"
     style="color:#000000;display:inline;overflow:visible;visibility:visible;fill:#00a000;fill-opacity:1;fill-rule:evenodd;stroke:#003300;stroke-width:4.26666689;stroke-linecap:butt;stroke-linejoin:round;stroke-miterlimit:4;stroke-dashoffset:0;stroke-opacity:1;marker:none;enable-background:accumulate"
     d="m 1756.5141,258.04987 c 2.7353,2.78885 7.144,2.90032 9.8474,0.249 2.7033,-2.65132 2.6775,-7.06146 -0.058,-9.8503 -2.6591,-2.71125 -7.1295,-2.80943 -9.8474,-0.24899 -2.7178,2.56045 -2.6775,7.06145 0.058,9.85029 z m 83.9369,-5.69861 -7.6117,-4.9183 c 0,0 -29.0083,0.58968 -43.7854,0.8388 -1.1404,-8.49118 -11.3801,-17.81526 -22.0282,-17.24887 -10.6481,0.56638 -21.3488,12.66474 -20.7145,23.25688 0.6345,10.59215 9.3953,19.31201 21.0637,19.89768 11.6684,0.58566 19.1765,-10.72038 20.6336,-14.24491 l 10.3149,-0.14026 6.3461,5.98072 6.92,-6.16109 7.4625,6.2964 6.1451,-6.48144 7.1747,-0.0975 z"
     inkscape:connector-curvature="0"
     sodipodi:nodetypes="ssszsccczzzcccccccc" />
  <path
     sodipodi:nodetypes="ccccc"
     inkscape:connector-curvature="0"
     id="path4283-8-31"
     d="m 1495.6904,1200.2793 c 28.5759,23.7706 32.9088,35.3327 0.6423,26.9476 42.9211,28.6872 42.71,25.5955 -0.4696,57.3618 37.8722,-8.1497 78.0876,-40.7821 141.7811,10.4544 -58.2273,-78.7038 -141.9538,-94.7638 -141.9538,-94.7638 z"
     style="fill:#006400;fill-opacity:1;stroke:#003300;stroke-width:4.26666689;stroke-linecap:butt;stroke-linejoin:round;stroke-miterlimit:4;stroke-dasharray:none;stroke-opacity:1" />
  <path
     sodipodi:nodetypes="cc"
     inkscape:connector-curvature="0"
     id="path3598-5-3"
     d="m 1637.1223,1294.6483 c 77.4559,68.9946 83.0262,300.8624 -125.8166,301.3199"
     style="fill:none;stroke:#003300;stroke-width:4.26666689;stroke-linecap:butt;stroke-linejoin:round;stroke-miterlimit:4;stroke-dasharray:none;stroke-opacity:1" />
  <path
     id="path4382-6-5"
     style="color:#000000;display:inline;overflow:visible;visibility:visible;fill:#00a000;fill-opacity:1;fill-rule:evenodd;stroke:#003300;stroke-width:4.26666689;stroke-linecap:butt;stroke-linejoin:round;stroke-miterlimit:4;stroke-dashoffset:0;stroke-opacity:1;marker:none;enable-background:accumulate"
     d="m 1510.7428,1600.7888 c -2.7353,2.7889 -7.144,2.9004 -9.8474,0.2491 -2.7034,-2.6513 -2.6775,-7.0615 0.058,-9.8504 2.6591,-2.7112 7.1295,-2.8094 9.8474,-0.2489 2.7177,2.5604 2.6775,7.0614 -0.058,9.8502 z m -83.9369,-5.6986 7.6116,-4.9183 c 0,0 29.0084,0.5897 43.7854,0.8389 1.1404,-8.4912 11.3801,-17.8153 22.0282,-17.249 10.6482,0.5664 21.3488,12.6648 20.7144,23.257 -0.6344,10.5921 -9.3953,19.312 -21.0636,19.8976 -11.6684,0.5857 -19.1766,-10.7203 -20.6336,-14.2448 l -10.3148,-0.1403 -6.3463,5.9807 -6.92,-6.1611 -7.4625,6.2964 -6.145,-6.4814 -7.1747,-0.097 z"
     inkscape:connector-curvature="0"
     sodipodi:nodetypes="ssszsccczzzcccccccc" />
</svg>
